REM DIRINDEX 1\2\4,1\2\5,1\2\6,1\3\7,1\3\8
REM DIRNAME folder01,folder02,folder03,folder04,folder05,folder06,folder07,folder08
TITLE ""
FILE "022_Lesson 18_Output_Stage.mp3" MP3
  TRACK 01 AUDIO
    TITLE "0:"
    INDEX 01 00:00:00
  TRACK 02 AUDIO
    TITLE "6:cjc128_1283"
    INDEX 01 00:00:13
  TRACK 03 AUDIO
    TITLE "0:"
    INDEX 01 00:03:12
  TRACK 04 AUDIO
    TITLE "6:cjc128_1284"
    INDEX 01 00:03:57
  TRACK 05 AUDIO
    TITLE "0:"
    INDEX 01 00:05:61
  TRACK 06 AUDIO
    TITLE "4:cjc128_1285"
    INDEX 01 00:06:28
  TRACK 07 AUDIO
    TITLE "0:"
    INDEX 01 00:09:40
  TRACK 08 AUDIO
    TITLE "5:cjc128_1286"
    INDEX 01 00:13:28
  TRACK 09 AUDIO
    TITLE "0:"
    INDEX 01 00:16:30
  TRACK 10 AUDIO
    TITLE "6:cjc128_1287"
    INDEX 01 00:17:23
  TRACK 11 AUDIO
    TITLE "0:"
    INDEX 01 00:19:18
  TRACK 12 AUDIO
    TITLE "4:cjc128_1288"
    INDEX 01 00:19:69
  TRACK 13 AUDIO
    TITLE "0:"
    INDEX 01 00:25:15
  TRACK 14 AUDIO
    TITLE "5:cjc128_1289"
    INDEX 01 00:29:56
  TRACK 15 AUDIO
    TITLE "0:"
    INDEX 01 00:33:50
  TRACK 16 AUDIO
    TITLE "6:cjc128_1290"
    INDEX 01 00:34:22
  TRACK 17 AUDIO
    TITLE "0:"
    INDEX 01 00:36:27
  TRACK 18 AUDIO
    TITLE "4:cjc128_1291"
    INDEX 01 00:36:74
  TRACK 19 AUDIO
    TITLE "0:"
    INDEX 01 00:40:40
  TRACK 20 AUDIO
    TITLE "5:cjc128_1292"
    INDEX 01 00:44:09
  TRACK 21 AUDIO
    TITLE "0:"
    INDEX 01 00:47:19
  TRACK 22 AUDIO
    TITLE "6:cjc128_1293"
    INDEX 01 00:47:70
  TRACK 23 AUDIO
    TITLE "0:"
    INDEX 01 00:49:74
  TRACK 24 AUDIO
    TITLE "4:cjc128_1294"
    INDEX 01 00:50:56
  TRACK 25 AUDIO
    TITLE "0:"
    INDEX 01 00:54:44
  TRACK 26 AUDIO
    TITLE "5:cjc128_1295"
    INDEX 01 00:58:48
  TRACK 27 AUDIO
    TITLE "0:"
    INDEX 01 01:02:05
  TRACK 28 AUDIO
    TITLE "6:cjc128_1296"
    INDEX 01 01:02:55
  TRACK 29 AUDIO
    TITLE "0:"
    INDEX 01 01:04:64
  TRACK 30 AUDIO
    TITLE "4:cjc128_1297"
    INDEX 01 01:05:40
  TRACK 31 AUDIO
    TITLE "0:"
    INDEX 01 01:08:42
  TRACK 32 AUDIO
    TITLE "5:cjc128_1298"
    INDEX 01 01:11:27
  TRACK 33 AUDIO
    TITLE "0:"
    INDEX 01 01:13:53
  TRACK 34 AUDIO
    TITLE "6:cjc128_1299"
    INDEX 01 01:14:25
  TRACK 35 AUDIO
    TITLE "0:"
    INDEX 01 01:16:28
  TRACK 36 AUDIO
    TITLE "4:cjc128_1300"
    INDEX 01 01:17:14
  TRACK 37 AUDIO
    TITLE "0:"
    INDEX 01 01:21:16
  TRACK 38 AUDIO
    TITLE "5:cjc128_1301"
    INDEX 01 01:25:04
  TRACK 39 AUDIO
    TITLE "0:"
    INDEX 01 01:28:43
  TRACK 40 AUDIO
    TITLE "6:cjc128_1302"
    INDEX 01 01:29:13
  TRACK 41 AUDIO
    TITLE "0:"
    INDEX 01 01:31:08
  TRACK 42 AUDIO
    TITLE "4:cjc128_1303"
    INDEX 01 01:31:65
  TRACK 43 AUDIO
    TITLE "0:"
    INDEX 01 01:34:50
  TRACK 44 AUDIO
    TITLE "5:cjc128_1304"
    INDEX 01 01:37:30
  TRACK 45 AUDIO
    TITLE "0:"
    INDEX 01 01:39:43
  TRACK 46 AUDIO
    TITLE "6:cjc128_1305"
    INDEX 01 01:40:15
  TRACK 47 AUDIO
    TITLE "0:"
    INDEX 01 01:42:12
  TRACK 48 AUDIO
    TITLE "4:cjc128_1306"
    INDEX 01 01:42:55
  TRACK 49 AUDIO
    TITLE "0:"
    INDEX 01 01:46:39
  TRACK 50 AUDIO
    TITLE "5:cjc128_1307"
    INDEX 01 01:49:47
  TRACK 51 AUDIO
    TITLE "0:"
    INDEX 01 01:52:28
  TRACK 52 AUDIO
    TITLE "6:cjc128_1308"
    INDEX 01 01:52:73
  TRACK 53 AUDIO
    TITLE "0:"
    INDEX 01 01:55:01
  TRACK 54 AUDIO
    TITLE "4:cjc128_1309"
    INDEX 01 01:55:52
  TRACK 55 AUDIO
    TITLE "0:"
    INDEX 01 01:58:52
  TRACK 56 AUDIO
    TITLE "5:cjc128_1310"
    INDEX 01 02:01:54
  TRACK 57 AUDIO
    TITLE "0:"
    INDEX 01 02:04:04
  TRACK 58 AUDIO
    TITLE "6:cjc128_1311"
    INDEX 01 02:04:55
  TRACK 59 AUDIO
    TITLE "0:"
    INDEX 01 02:06:30
  TRACK 60 AUDIO
    TITLE "4:cjc128_1312"
    INDEX 01 02:07:14
  TRACK 61 AUDIO
    TITLE "0:"
    INDEX 01 02:10:43
  TRACK 62 AUDIO
    TITLE "5:cjc128_1313"
    INDEX 01 02:14:04
  TRACK 63 AUDIO
    TITLE "0:"
    INDEX 01 02:16:64
  TRACK 64 AUDIO
    TITLE "6:cjc128_1314"
    INDEX 01 02:17:42
  TRACK 65 AUDIO
    TITLE "0:"
    INDEX 01 02:19:33
  TRACK 66 AUDIO
    TITLE "4:cjc128_1315"
    INDEX 01 02:20:14
  TRACK 67 AUDIO
    TITLE "0:"
    INDEX 01 02:23:07
  TRACK 68 AUDIO
    TITLE "5:cjc128_1316"
    INDEX 01 02:26:17
  TRACK 69 AUDIO
    TITLE "0:"
    INDEX 01 02:28:61
  TRACK 70 AUDIO
    TITLE "6:cjc128_1317"
    INDEX 01 02:29:35
  TRACK 71 AUDIO
    TITLE "0:"
    INDEX 01 02:31:30
  TRACK 72 AUDIO
    TITLE "4:cjc128_1318"
    INDEX 01 02:32:00
  TRACK 73 AUDIO
    TITLE "0:"
    INDEX 01 02:34:52
  TRACK 74 AUDIO
    TITLE "5:cjc128_1319"
    INDEX 01 02:37:44
  TRACK 75 AUDIO
    TITLE "0:"
    INDEX 01 02:39:71
  TRACK 76 AUDIO
    TITLE "6:cjc128_1320"
    INDEX 01 02:40:50
  TRACK 77 AUDIO
    TITLE "0:"
    INDEX 01 02:42:47
  TRACK 78 AUDIO
    TITLE "4:cjc128_1321"
    INDEX 01 02:43:25
  TRACK 79 AUDIO
    TITLE "0:"
    INDEX 01 02:45:50
  TRACK 80 AUDIO
    TITLE "5:cjc128_1322"
    INDEX 01 02:48:54
  TRACK 81 AUDIO
    TITLE "0:"
    INDEX 01 02:51:15
  TRACK 82 AUDIO
    TITLE "6:cjc128_1323"
    INDEX 01 02:51:66
  TRACK 83 AUDIO
    TITLE "0:"
    INDEX 01 02:53:67
  TRACK 84 AUDIO
    TITLE "4:cjc128_1324"
    INDEX 01 02:54:51
  TRACK 85 AUDIO
    TITLE "0:"
    INDEX 01 02:57:16
  TRACK 86 AUDIO
    TITLE "5:cjc128_1325"
    INDEX 01 03:00:55
  TRACK 87 AUDIO
    TITLE "0:"
    INDEX 01 03:03:53
  TRACK 88 AUDIO
    TITLE "6:cjc128_1326"
    INDEX 01 03:04:27
  TRACK 89 AUDIO
    TITLE "0:"
    INDEX 01 03:06:30
  TRACK 90 AUDIO
    TITLE "4:cjc128_1327"
    INDEX 01 03:07:26
  TRACK 91 AUDIO
    TITLE "0:"
    INDEX 01 03:10:48
  TRACK 92 AUDIO
    TITLE "5:cjc128_1328"
    INDEX 01 03:13:62
  TRACK 93 AUDIO
    TITLE "0:"
    INDEX 01 03:16:27
  TRACK 94 AUDIO
    TITLE "6:cjc128_1329"
    INDEX 01 03:17:03
  TRACK 95 AUDIO
    TITLE "0:"
    INDEX 01 03:19:05
  TRACK 96 AUDIO
    TITLE "4:cjc128_1330"
    INDEX 01 03:19:70
  TRACK 97 AUDIO
    TITLE "0:"
    INDEX 01 03:23:21
  TRACK 98 AUDIO
    TITLE "5:cjc128_1331"
    INDEX 01 03:26:70
  TRACK 99 AUDIO
    TITLE "0:"
    INDEX 01 03:29:59
  TRACK 100 AUDIO
    TITLE "6:cjc128_1332"
    INDEX 01 03:30:46
  TRACK 101 AUDIO
    TITLE "0:"
    INDEX 01 03:32:47
  TRACK 102 AUDIO
    TITLE "4:cjc128_1333"
    INDEX 01 03:33:31
  TRACK 103 AUDIO
    TITLE "0:"
    INDEX 01 03:37:31
  TRACK 104 AUDIO
    TITLE "5:cjc128_1334"
    INDEX 01 03:41:44
  TRACK 105 AUDIO
    TITLE "0:"
    INDEX 01 03:45:13
  TRACK 106 AUDIO
    TITLE "6:cjc128_1335"
    INDEX 01 03:45:60
  TRACK 107 AUDIO
    TITLE "0:"
    INDEX 01 03:47:51
  TRACK 108 AUDIO
    TITLE "4:cjc128_1336"
    INDEX 01 03:48:29
  TRACK 109 AUDIO
    TITLE "0:"
    INDEX 01 03:51:35
  TRACK 110 AUDIO
    TITLE "5:cjc128_1337"
    INDEX 01 03:54:55
  TRACK 111 AUDIO
    TITLE "0:"
    INDEX 01 03:57:37
  TRACK 112 AUDIO
    TITLE "6:cjc128_1338"
    INDEX 01 03:58:09
  TRACK 113 AUDIO
    TITLE "0:"
    INDEX 01 04:00:08
  TRACK 114 AUDIO
    TITLE "4:cjc128_1339"
    INDEX 01 04:00:57
  TRACK 115 AUDIO
    TITLE "0:"
    INDEX 01 04:04:16
  TRACK 116 AUDIO
    TITLE "5:cjc128_1340"
    INDEX 01 04:07:46
  TRACK 117 AUDIO
    TITLE "0:"
    INDEX 01 04:10:24
  TRACK 118 AUDIO
    TITLE "6:cjc128_1341"
    INDEX 01 04:11:22
  TRACK 119 AUDIO
    TITLE "0:"
    INDEX 01 04:12:72
  TRACK 120 AUDIO
    TITLE "4:cjc128_1342"
    INDEX 01 04:13:56
  TRACK 121 AUDIO
    TITLE "0:"
    INDEX 01 04:16:72
  TRACK 122 AUDIO
    TITLE "5:cjc128_1343"
    INDEX 01 04:20:54
  TRACK 123 AUDIO
    TITLE "0:"
    INDEX 01 04:24:11
  TRACK 124 AUDIO
    TITLE "6:cjc128_1344"
    INDEX 01 04:24:60
  TRACK 125 AUDIO
    TITLE "0:"
    INDEX 01 04:26:55
  TRACK 126 AUDIO
    TITLE "4:cjc128_1345"
    INDEX 01 04:27:33
  TRACK 127 AUDIO
    TITLE "0:"
    INDEX 01 04:30:07
  TRACK 128 AUDIO
    TITLE "5:cjc128_1346"
    INDEX 01 04:33:25
  TRACK 129 AUDIO
    TITLE "0:"
    INDEX 01 04:35:65
  TRACK 130 AUDIO
    TITLE "6:cjc128_1347"
    INDEX 01 04:36:49
  TRACK 131 AUDIO
    TITLE "0:"
    INDEX 01 04:38:50
  TRACK 132 AUDIO
    TITLE "4:cjc128_1348"
    INDEX 01 04:39:30
  TRACK 133 AUDIO
    TITLE "0:"
    INDEX 01 04:43:04
  TRACK 134 AUDIO
    TITLE "5:cjc128_1349"
    INDEX 01 04:46:34
  TRACK 135 AUDIO
    TITLE "0:"
    INDEX 01 04:49:17
  TRACK 136 AUDIO
    TITLE "6:cjc128_1350"
    INDEX 01 04:50:24
  TRACK 137 AUDIO
    TITLE "0:"
    INDEX 01 04:52:29
  TRACK 138 AUDIO
    TITLE "4:cjc128_1351"
    INDEX 01 04:53:07
  TRACK 139 AUDIO
    TITLE "0:"
    INDEX 01 04:56:11
  TRACK 140 AUDIO
    TITLE "5:cjc128_1352"
    INDEX 01 04:59:33
  TRACK 141 AUDIO
    TITLE "0:"
    INDEX 01 05:02:06
